<svg width="1440" height="413" viewBox="0 0 1440 413" fill="none" xmlns="http://www.w3.org/2000/svg">
<path d="M770.049 38.9473V331.985H726.679V38.9473H770.049Z" fill="black"/>
<path fill-rule="evenodd" clip-rule="evenodd" d="M840.166 329.227C851.865 334.581 864.952 337.258 879.428 337.258C906.244 337.258 930.043 324.408 947.039 307.955H948.732V332.201H992.159V180.505C992.159 163.849 989.283 150.315 983.533 139.904C977.782 129.395 970.396 121.314 961.373 115.663C952.45 110.011 942.833 106.145 932.521 104.063C922.309 101.881 912.642 100.791 903.521 100.791C889.739 100.791 876.602 102.774 864.11 106.74C851.617 110.606 840.562 116.853 830.945 125.478C821.427 134.005 814.189 145.209 809.231 159.09L851.022 168.608C854.294 160.577 860.193 153.289 868.72 146.746C877.346 140.103 889.144 136.781 904.116 136.781C918.492 136.781 929.299 140.351 936.537 147.489C943.874 154.628 947.542 164.691 947.542 177.68V178.721C947.542 184.075 945.609 187.941 941.742 190.321C937.875 192.7 931.679 194.436 923.152 195.526C914.625 196.518 903.521 197.807 889.838 199.393C879.031 200.682 868.423 202.566 858.012 205.044C847.602 207.523 838.183 211.192 829.755 216.05C821.327 220.908 814.635 227.501 809.678 235.83C804.72 244.158 802.242 254.767 802.242 267.656C802.242 282.627 805.613 295.269 812.355 305.58C819.196 315.891 828.466 323.773 840.166 329.227ZM920.624 294.277C911.899 299.135 901.389 301.564 889.095 301.564C876.503 301.564 866.142 298.788 858.012 293.236C849.882 287.585 845.817 279.256 845.817 268.251C845.817 260.319 847.899 253.974 852.063 249.215C856.327 244.356 861.978 240.638 869.017 238.061C876.156 235.483 884.038 233.648 892.664 232.558C896.333 232.062 900.893 231.467 906.347 230.773C911.8 229.98 917.402 229.137 923.152 228.245C928.903 227.253 934.009 226.113 938.47 224.824C943.031 223.436 946.105 221.949 947.691 220.363C947.691 223.626 947.777 226.94 947.864 230.276V230.303L947.865 230.321C948.266 245.756 948.68 261.66 940.701 275.241C936.14 283.073 929.448 289.419 920.624 294.277Z" fill="black"/>
<path d="M1069.56 321.79C1085.53 331.804 1104.56 336.811 1126.67 336.811C1144.72 336.811 1160.43 333.49 1173.82 326.847C1187.3 320.204 1198.06 311.083 1206.09 299.482C1214.12 287.882 1218.93 274.695 1220.52 259.923H1177.24C1175.36 268.152 1172.03 275.191 1167.27 281.041C1162.61 286.891 1156.81 291.402 1149.87 294.575C1143.03 297.648 1135.4 299.185 1126.97 299.185C1114.38 299.185 1103.42 295.863 1094.1 289.221C1084.88 282.578 1077.74 273.208 1072.69 261.112C1067.63 249.016 1065.1 234.64 1065.1 217.983C1065.1 201.723 1067.68 187.644 1072.84 175.746C1077.99 163.749 1085.18 154.529 1094.4 148.084C1103.72 141.54 1114.58 138.269 1126.97 138.269C1141.15 138.269 1152.45 142.135 1160.88 149.869C1169.41 157.602 1174.86 166.823 1177.24 177.531H1220.52C1218.93 162.163 1213.92 148.729 1205.5 137.227C1197.17 125.726 1186.21 116.803 1172.63 110.458C1159.05 104.013 1143.58 100.791 1126.23 100.791C1104.71 100.791 1086.02 105.798 1070.16 115.812C1054.3 125.825 1042 139.756 1033.28 157.602C1024.55 175.35 1020.19 195.824 1020.19 219.024C1020.19 241.927 1024.45 262.252 1032.98 280C1041.51 297.747 1053.7 311.677 1069.56 321.79Z" fill="black"/>
<path d="M1275.52 412.279C1268.88 412.279 1262.83 411.734 1257.38 410.643C1251.92 409.652 1247.86 408.561 1245.18 407.371L1255.89 370.935C1264.02 373.116 1271.26 374.058 1277.6 373.76C1283.95 373.463 1289.55 371.083 1294.41 366.622C1299.37 362.16 1303.73 354.873 1307.5 344.76L1310.17 335.185L1226.59 103.775H1274.18L1332.03 281.05H1334.41L1392.27 103.775H1440.01L1345.87 362.698C1341.5 374.596 1338.78 379.065 1332.03 387.294C1325.29 395.622 1317.26 401.869 1307.94 406.033C1298.62 410.197 1287.82 412.279 1275.52 412.279Z" fill="black"/>
<path fill-rule="evenodd" clip-rule="evenodd" d="M478.625 332.207V39.3473H591.132C614.828 39.3473 634.459 43.6602 650.026 52.286C665.592 60.9119 677.242 72.7104 684.975 87.6817C692.709 102.554 696.575 119.31 696.575 137.949C696.575 156.688 692.659 173.543 684.826 188.515C677.093 203.387 665.393 215.185 649.728 223.91C634.162 232.536 614.58 236.849 590.983 236.849H523.408V332.207H478.625ZM523.408 78.7584V197.884H589.163C604.135 197.884 616.28 195.306 625.6 190.151C634.92 184.896 641.761 177.757 646.124 168.735C650.486 159.712 652.667 149.451 652.667 137.949C652.667 126.448 650.486 116.236 646.124 107.313C641.761 98.3896 634.87 91.3997 625.451 86.3432C616.131 81.2867 603.837 78.7584 588.568 78.7584H523.408Z" fill="black"/>
<path fill-rule="evenodd" clip-rule="evenodd" d="M267.675 268.06C229.607 268.06 191.069 269.618 155.221 284.048C130.545 293.98 123.749 307.559 122.514 312.729C122.088 314.512 121.977 317.284 123.595 320.657C125.187 323.977 128.366 327.703 134.181 331.64C145.815 339.516 165.78 345.96 193.333 345.96C277.612 345.96 345.947 277.633 345.947 193.332C345.947 109.031 277.612 40.7043 193.333 40.7043C109.054 40.7043 40.7189 109.031 40.7189 193.332C40.7189 213.62 45.002 237.093 55.9578 259.364C56.8101 261.096 58.6368 264.537 58.6368 264.537L31.072 291.724C31.072 291.724 28.4443 286.91 26.8696 284.094C9.80048 253.576 3.45312 220.972 3.45312 193.332C3.45312 88.4714 88.4581 3.45215 193.333 3.45215C298.208 3.45215 383.213 88.4714 383.213 193.332C383.213 298.192 298.208 383.212 193.333 383.212C160.61 383.212 132.736 375.654 113.284 362.484C93.8468 349.324 80.4798 328.288 86.2682 304.072C90.4007 286.783 103.324 271.038 121.864 259.364L123.122 258.571V141.866L195.398 101.357L267.675 141.866V268.06ZM160.388 163.687V242.923C183.327 236.628 206.717 233.131 230.409 231.256V163.687L195.398 144.065L160.388 163.687Z" fill="black"/>
</svg>
