<svg width="102" height="31" viewBox="0 0 102 31" fill="none" xmlns="http://www.w3.org/2000/svg">
<path d="M54.541 4.55566V25.3125H51.469V4.55566H54.541Z" fill="white"/>
<path fill-rule="evenodd" clip-rule="evenodd" d="M59.5076 25.1171C60.3363 25.4964 61.2633 25.686 62.2886 25.686C64.1881 25.686 65.8739 24.7758 67.0778 23.6103H67.1977V25.3278H70.2737V14.5827C70.2737 13.4028 70.0701 12.4442 69.6627 11.7068C69.2554 10.9624 68.7322 10.39 68.0931 9.98969C67.461 9.58938 66.7798 9.31548 66.0494 9.168C65.3261 9.0135 64.6413 8.93625 63.9952 8.93625C63.019 8.93625 62.0885 9.0767 61.2036 9.35762C60.3187 9.63152 59.5357 10.074 58.8544 10.685C58.1802 11.2889 57.6675 12.0825 57.3164 13.0657L60.2766 13.7399C60.5083 13.1711 60.9262 12.6549 61.5302 12.1914C62.1412 11.7208 62.9769 11.4856 64.0374 11.4856C65.0557 11.4856 65.8212 11.7384 66.3339 12.2441C66.8536 12.7497 67.1134 13.4625 67.1134 14.3825V14.4563C67.1134 14.8355 66.9765 15.1094 66.7026 15.278C66.4287 15.4465 65.9897 15.5694 65.3858 15.6467C64.7818 15.7169 63.9952 15.8082 63.0261 15.9206C62.2606 16.0119 61.5091 16.1453 60.7717 16.3209C60.0343 16.4964 59.3671 16.7563 58.7701 17.1004C58.1732 17.4445 57.6991 17.9116 57.348 18.5015C56.9969 19.0914 56.8213 19.8429 56.8213 20.7559C56.8213 21.8163 57.0601 22.7118 57.5376 23.4421C58.0222 24.1725 58.6789 24.7309 59.5076 25.1171ZM65.2067 22.6415C64.5887 22.9857 63.8442 23.1577 62.9734 23.1577C62.0815 23.1577 61.3476 22.9611 60.7717 22.5678C60.1958 22.1675 59.9079 21.5775 59.9079 20.798C59.9079 20.2362 60.0553 19.7867 60.3503 19.4496C60.6523 19.1055 61.0526 18.8421 61.5512 18.6595C62.0569 18.4769 62.6152 18.347 63.2262 18.2697C63.4861 18.2346 63.8091 18.1925 64.1954 18.1433C64.5816 18.0871 64.9784 18.0275 65.3858 17.9642C65.7931 17.894 66.1548 17.8133 66.4708 17.722C66.7939 17.6236 67.0116 17.5183 67.124 17.4059C67.124 17.6371 67.1301 17.8718 67.1362 18.1081V18.11L67.1363 18.1113C67.1647 19.2046 67.194 20.3312 66.6288 21.2931C66.3058 21.8479 65.8317 22.2974 65.2067 22.6415Z" fill="white"/>
<path d="M75.7567 24.5904C76.8874 25.2997 78.2358 25.6544 79.8019 25.6544C81.0801 25.6544 82.1932 25.4191 83.1413 24.9486C84.0964 24.478 84.8584 23.8319 85.4273 23.0102C85.9961 22.1885 86.3368 21.2545 86.4491 20.2081H83.3836C83.2502 20.791 83.0149 21.2896 82.6778 21.704C82.3477 22.1183 81.9369 22.4379 81.4453 22.6626C80.9607 22.8803 80.4199 22.9892 79.823 22.9892C78.931 22.9892 78.155 22.7539 77.4948 22.2834C76.8417 21.8128 76.3361 21.1492 75.9779 20.2924C75.6197 19.4356 75.4406 18.4172 75.4406 17.2374C75.4406 16.0856 75.6232 15.0883 75.9884 14.2456C76.3536 13.3958 76.8628 12.7427 77.5159 12.2862C78.1761 11.8227 78.9451 11.5909 79.823 11.5909C80.8272 11.5909 81.6279 11.8648 82.2248 12.4126C82.8288 12.9604 83.215 13.6135 83.3836 14.372H86.4491C86.3368 13.2834 85.9821 12.3318 85.3851 11.5172C84.7952 10.7025 84.0192 10.0705 83.057 9.62098C82.0949 9.16449 80.9993 8.93625 79.7703 8.93625C78.2463 8.93625 76.9225 9.2909 75.7988 10.0002C74.6751 10.7095 73.8043 11.6963 73.1863 12.9604C72.5682 14.2175 72.2592 15.6677 72.2592 17.3111C72.2592 18.9334 72.5612 20.3731 73.1652 21.6302C73.7692 22.8873 74.633 23.8741 75.7567 24.5904Z" fill="white"/>
<path d="M90.3452 31C89.8747 31 89.4463 30.9614 89.06 30.8841C88.6738 30.8139 88.3858 30.7366 88.1962 30.6524L88.9547 28.0714C89.5306 28.2259 90.0432 28.2927 90.4927 28.2716C90.9422 28.2505 91.339 28.082 91.6831 27.7659C92.0342 27.4499 92.3433 26.9337 92.6101 26.2174L92.7997 25.5392L86.8794 9.14762H90.2504L94.3483 21.7046H94.5169L98.6148 9.14762H101.996L95.328 27.488C95.019 28.3308 94.8259 28.6473 94.3483 29.2302C93.8707 29.8202 93.3019 30.2626 92.6417 30.5576C91.9816 30.8525 91.2161 31 90.3452 31Z" fill="white"/>
<path fill-rule="evenodd" clip-rule="evenodd" d="M33.8984 25.3282V4.584H41.8677C43.5462 4.584 44.9367 4.8895 46.0393 5.50049C47.1419 6.11149 47.9671 6.94722 48.5149 8.00769C49.0627 9.06113 49.3366 10.248 49.3366 11.5683C49.3366 12.8957 49.0592 14.0896 48.5044 15.15C47.9566 16.2035 47.1279 17.0392 46.0182 17.6572C44.9156 18.2682 43.5286 18.5737 41.8571 18.5737H37.0706V25.3282H33.8984ZM37.0706 7.37562V15.8137H41.7282C42.7887 15.8137 43.649 15.6311 44.3092 15.2659C44.9693 14.8937 45.4539 14.388 45.7629 13.7489C46.0719 13.1099 46.2264 12.383 46.2264 11.5683C46.2264 10.7537 46.0719 10.0303 45.7629 9.39823C45.4539 8.76616 44.9658 8.27105 44.2986 7.91288C43.6385 7.55471 42.7676 7.37562 41.6861 7.37562H37.0706Z" fill="white"/>
<path fill-rule="evenodd" clip-rule="evenodd" d="M18.9579 20.7845C16.2614 20.7845 13.5317 20.8949 10.9924 21.917C9.2445 22.6205 8.76318 23.5824 8.67564 23.9486C8.64546 24.0748 8.63766 24.2712 8.75223 24.5101C8.86499 24.7453 9.0902 25.0092 9.50211 25.2881C10.3262 25.846 11.7404 26.3024 13.692 26.3024C19.6618 26.3024 24.5022 21.4626 24.5022 15.4913C24.5022 9.51993 19.6618 4.68013 13.692 4.68013C7.72223 4.68013 2.88185 9.51993 2.88185 15.4913C2.88185 16.9283 3.18523 18.591 3.96127 20.1685C4.02164 20.2912 4.15103 20.5349 4.15103 20.5349L2.19852 22.4607C2.19852 22.4607 2.0124 22.1197 1.90085 21.9203C0.691792 19.7586 0.242188 17.4491 0.242188 15.4913C0.242188 8.06364 6.26337 2.04144 13.692 2.04144C21.1206 2.04144 27.1418 8.06364 27.1418 15.4913C27.1418 22.9189 21.1206 28.9411 13.692 28.9411C11.3741 28.9411 9.39973 28.4057 8.02187 27.4729C6.64507 26.5407 5.69825 25.0506 6.10825 23.3353C6.40097 22.1107 7.31638 20.9954 8.6296 20.1685L8.71871 20.1124V11.8457L13.8383 8.9764L18.9579 11.8458V20.7845ZM11.3584 13.3914V19.004C12.9833 18.5581 14.6401 18.3104 16.3182 18.1775V13.3914L13.8383 12.0015L11.3584 13.3914Z" fill="white"/>
</svg>
